<?xml version="1.0" standalone="no"?>
<!DOCTYPE svg PUBLIC "-//W3C//DTD SVG 20010904//EN"
 "http://www.w3.org/TR/2001/REC-SVG-20010904/DTD/svg10.dtd">
<svg version="1.0" xmlns="http://www.w3.org/2000/svg"
 width="1280.000000pt" height="1087.000000pt" viewBox="0 0 1280.000000 1087.000000"
 preserveAspectRatio="xMidYMid meet">
<g transform="translate(0.000000,1087.000000) scale(0.100000,-0.100000)"
fill="#000000" stroke="none">
<path d="M3531 10824 c-28 -25 -90 -99 -136 -164 -74 -104 -193 -230 -216
-230 -5 0 -63 -69 -129 -152 -240 -302 -277 -345 -436 -508 -257 -264 -331
-365 -507 -691 -117 -218 -181 -315 -297 -449 -126 -145 -167 -210 -274 -432
-159 -329 -242 -554 -375 -1020 -88 -307 -123 -416 -173 -543 -98 -246 -292
-571 -417 -696 -82 -82 -175 -143 -364 -239 -81 -41 -149 -82 -152 -90 -5 -16
-25 -218 -46 -455 -7 -78 -9 -195 -6 -265 32 -690 171 -1259 427 -1747 63
-120 152 -264 175 -283 11 -9 44 5 167 73 574 319 887 419 1373 442 196 10
329 -5 547 -61 168 -43 193 -47 308 -47 151 -1 231 15 415 83 72 27 231 85
355 128 124 44 333 121 465 172 295 112 398 143 685 210 124 28 302 77 395
107 l170 56 59 60 c136 141 181 226 266 501 68 221 81 256 180 466 78 166 126
298 136 368 8 61 -11 101 -62 131 -29 18 -35 26 -30 44 34 116 67 257 77 327
11 84 6 580 -7 677 -13 90 -53 134 -289 321 -480 378 -751 572 -892 640 l-74
35 -287 -6 c-381 -8 -585 -31 -797 -92 -105 -30 -253 -99 -309 -144 -64 -51
-74 -33 -35 66 23 58 41 74 324 294 279 218 543 408 656 472 44 26 50 27 325
37 297 11 485 25 547 41 30 8 43 7 55 -4 10 -7 74 -63 143 -124 202 -177 336
-269 465 -320 88 -34 218 -38 274 -9 56 30 146 103 183 149 47 58 89 144 82
167 -3 11 -37 48 -76 84 -64 59 -115 96 -350 249 -52 34 -147 115 -239 203
-118 113 -166 153 -214 175 -117 54 -372 89 -653 89 -74 0 -188 5 -254 11
-136 12 -160 9 -419 -67 -298 -88 -606 -205 -879 -335 -143 -68 -180 -79 -151
-44 7 8 114 92 239 187 304 231 465 364 582 481 l98 98 178 59 c194 63 276 94
428 163 115 51 237 84 450 122 219 39 371 81 434 118 193 116 254 346 124 469
-15 15 -41 32 -56 37 -51 19 -185 12 -419 -24 -126 -19 -292 -40 -369 -45
-193 -14 -337 -62 -771 -256 -474 -212 -620 -303 -1093 -678 -180 -143 -302
-229 -319 -223 -6 2 -12 11 -14 21 -10 48 189 323 573 791 99 121 201 247 227
280 26 33 81 101 122 150 42 50 87 113 101 140 68 138 24 341 -96 449 -28 25
-57 46 -64 46 -7 0 -36 -21 -64 -46z m1188 -4093 c175 -139 367 -249 551 -315
89 -32 95 -36 103 -67 79 -315 191 -571 308 -703 26 -29 44 -57 41 -62 -4 -5
-45 -41 -92 -81 -203 -171 -330 -330 -445 -555 -42 -81 -85 -153 -95 -158 -15
-8 -60 -5 -167 10 -311 44 -567 23 -875 -71 -70 -21 -129 -39 -132 -39 -2 0
-25 35 -51 77 -111 185 -242 338 -430 503 -175 154 -221 241 -197 373 18 97
119 424 154 496 40 84 140 185 266 269 94 63 141 81 380 146 142 40 273 91
432 172 80 40 149 73 154 73 4 1 47 -30 95 -68z"/>
<path d="M12045 7944 c-172 -100 -506 -264 -626 -308 -226 -83 -400 -119 -654
-137 -241 -17 -446 -2 -646 48 -149 37 -160 38 -324 38 -198 -1 -231 -8 -481
-106 -85 -32 -197 -73 -251 -90 -54 -18 -235 -82 -403 -144 -461 -170 -536
-193 -897 -269 -180 -38 -329 -83 -413 -124 -44 -22 -73 -48 -142 -132 -109
-131 -139 -191 -227 -455 -38 -115 -99 -275 -136 -355 -175 -379 -208 -519
-137 -580 16 -14 37 -30 47 -35 16 -10 15 -17 -14 -120 -58 -200 -66 -288 -55
-640 11 -353 11 -352 101 -439 51 -48 630 -493 798 -613 145 -103 269 -179
330 -202 51 -19 66 -20 317 -11 291 10 418 21 583 50 207 36 380 99 508 184
84 56 97 48 67 -40 -11 -32 -33 -71 -48 -87 -27 -29 -347 -277 -537 -417 -156
-115 -402 -278 -438 -289 -17 -5 -144 -15 -282 -21 -278 -12 -517 -34 -559
-50 -15 -5 -31 -10 -36 -10 -6 0 -72 54 -147 121 -257 226 -405 320 -556 354
-102 23 -161 10 -260 -54 -86 -57 -138 -114 -178 -198 -35 -73 -34 -75 43
-149 62 -60 155 -129 323 -239 85 -56 156 -114 245 -200 69 -67 147 -138 173
-158 129 -96 322 -125 872 -128 l290 -2 137 36 c300 79 666 215 950 353 122
60 175 81 182 73 13 -13 13 -13 -264 -223 -358 -272 -548 -430 -615 -512 -31
-38 -46 -46 -123 -69 -131 -41 -341 -120 -488 -186 -140 -63 -184 -76 -481
-139 -207 -44 -374 -90 -432 -120 -66 -33 -138 -107 -172 -175 -25 -52 -32
-77 -31 -128 0 -73 15 -110 68 -161 69 -67 154 -69 484 -16 96 16 222 34 280
40 58 6 143 15 189 20 142 16 444 130 869 328 275 128 460 248 765 495 358
289 424 336 448 321 50 -30 -145 -308 -655 -932 -331 -405 -361 -445 -381
-509 -45 -141 32 -356 148 -417 l35 -18 44 29 c39 26 68 61 213 259 28 37 83
95 123 129 45 37 132 133 231 256 182 224 255 305 425 474 127 126 245 274
315 393 22 38 84 152 137 252 121 232 178 318 302 454 124 136 181 227 286
453 154 329 206 475 357 997 125 431 161 531 264 741 133 273 295 489 434 583
31 20 135 78 231 127 l175 90 12 95 c37 304 49 576 34 755 -51 587 -118 909
-271 1303 -86 221 -307 634 -337 631 -5 0 -66 -34 -138 -75z m-3102 -1857
c107 -181 202 -291 463 -537 189 -177 194 -209 97 -546 -71 -244 -111 -331
-185 -404 -60 -59 -208 -165 -285 -203 -28 -15 -122 -47 -210 -72 -198 -58
-299 -98 -488 -194 -82 -42 -153 -77 -156 -79 -3 -1 -41 26 -82 62 -166 141
-352 253 -545 330 l-120 48 -17 71 c-22 90 -82 269 -123 364 -46 107 -103 200
-168 273 l-57 64 49 40 c27 22 110 101 184 175 154 154 223 250 326 451 52
103 71 131 90 136 13 4 95 -2 182 -11 308 -34 574 -8 851 84 64 22 121 40 128
40 6 1 36 -41 66 -92z"/>
</g>
</svg>
